<?xml version="1.0" standalone="no"?>
<!DOCTYPE svg PUBLIC "-//W3C//DTD SVG 1.1//EN" "http://www.w3.org/Graphics/SVG/1.1/DTD/svg11.dtd" >
<svg xmlns="http://www.w3.org/2000/svg">
<metadata>Generated by IcoMoon</metadata>
<defs>
<font id="icomoon" horiz-adv-x="1024">
<font-face units-per-em="1024" ascent="960" descent="-64" />
<missing-glyph horiz-adv-x="1024" />
<glyph unicode="&#x20;" horiz-adv-x="512" d="" />
<glyph unicode="&#xe900;" glyph-name="icon_address" d="M454.187 956.8c-84.053-13.653-155.947-51.413-214.187-112.427-27.733-29.013-46.72-55.893-64-90.24-26.667-53.333-37.12-94.933-38.827-154.667-0.853-34.773-0.427-42.027 3.627-61.867 22.827-112.213 120.107-285.44 276.907-493.867 36.693-48.853 76.373-99.2 81.92-103.893 5.973-5.333 19.627-5.12 25.173 0.427 7.253 7.253 51.413 63.36 84.693 107.733 155.947 208.213 250.88 377.813 273.707 489.6 4.053 19.84 4.48 27.093 3.627 61.867-1.707 59.733-12.16 101.333-38.827 154.667-51.413 102.187-146.133 174.933-260.267 199.467-27.733 5.973-104.96 7.893-133.547 3.2zM557.867 921.387c107.52-14.293 205.013-83.2 255.787-181.12 33.067-63.787 45.653-138.027 33.493-197.547-23.253-113.92-136.107-304.853-321.28-543.147-7.040-8.96-13.227-16.427-13.867-16.427-1.28 0-17.707 20.907-62.080 79.787-155.093 205.867-251.733 375.467-273.067 479.787-12.373 60.587 1.493 138.667 36.053 202.453 23.893 43.947 61.44 86.827 100.907 115.2 22.613 16.213 67.413 39.040 91.733 47.147 49.067 15.787 100.907 20.693 152.32 13.867zM391.253 736.853c-62.080-47.573-114.133-88.107-115.413-90.027-4.267-5.333-3.413-18.987 1.493-23.893 3.84-3.84 7.040-4.267 34.133-4.267h29.867v-98.133c0-95.36 0.213-98.347 4.267-102.4 4.267-4.267 7.040-4.267 166.4-4.267s162.133 0 166.4 4.267c4.053 4.053 4.267 7.040 4.267 102.4v98.133h29.867c27.093 0 30.293 0.427 34.133 4.267 4.907 4.907 5.76 18.56 1.707 23.893-1.493 1.92-53.547 42.453-115.627 90.027-102.827 79.147-113.28 86.613-120.747 86.613s-17.92-7.467-120.747-86.613zM596.907 717.867l83.2-64-12.8-1.067c-9.387-0.853-13.44-2.133-15.787-5.12-2.56-3.413-2.987-20.907-2.987-101.973v-97.707h-68.267v64c0 61.227-0.213 64.213-4.267 68.267s-7.040 4.267-64 4.267c-56.96 0-59.947-0.213-64-4.267s-4.267-7.040-4.267-68.267v-64h-68.267v97.707c0 81.067-0.427 98.56-2.987 101.973-2.347 2.987-6.4 4.267-15.787 5.12l-12.8 1.067 83.627 64.427c45.867 35.413 84.053 64.213 84.693 64 0.853-0.213 38.827-29.227 84.693-64.427zM546.133 499.2v-51.2h-68.267v102.4h68.267v-51.2z" />
<glyph unicode="&#xe901;" glyph-name="icon_broadcast" d="M460.967 958.159c-149.417-18.405-275.409-103.739-347.524-235.754-21.752-39.655-38.986-90.855-47.519-140.549-4.518-26.604-6.191-88.847-3.346-118.295 6.86-66.259 27.942-129.673 62.912-187.901 17.569-29.114 49.861-70.609 60.068-76.967 15.059-9.203 32.293-7.864 45.176 3.514 9.537 8.366 13.386 18.071 12.382 31.289-0.837 11.545-4.852 18.907-20.748 37.145-16.063 18.573-32.962 44.675-46.515 71.948s-20.413 45.511-27.608 73.454c-9.203 35.137-11.043 50.698-11.043 93.867 0.167 44.173 3.012 65.757 13.386 102.065 35.807 124.486 134.024 222.703 258.51 258.51 36.643 10.541 57.725 13.218 102.902 13.386 45.009 0 65.924-2.677 102.902-13.386 124.486-35.807 222.703-134.024 258.51-258.51 10.708-36.978 13.386-57.725 13.218-102.902 0-42.667-1.506-56.889-9.872-89.516-13.218-51.869-39.153-104.742-71.446-144.899-12.549-15.561-14.724-20.413-14.724-31.958 0.167-29.281 29.114-47.017 55.216-33.799 21.417 10.541 67.597 83.827 88.512 139.88 21.752 58.060 29.616 105.914 28.11 172.34-1.004 44.34-3.681 65.59-13.72 103.571-40.324 154.269-161.631 277.25-314.897 319.582-41.83 11.545-64.418 14.39-115.116 15.059-24.763 0.167-50.865-0.335-57.725-1.171zM496.105 781.637c-87.007-7.027-161.631-50.363-209.485-121.809-41.663-62.41-55.216-143.226-36.476-217.851 7.697-30.62 22.756-65.088 32.125-73.621 24.931-22.756 63.582-5.856 63.582 27.775 0 8.366-1.339 12.716-8.533 28.11-15.393 33.297-21.584 63.080-19.744 96.209 4.016 74.458 49.694 140.047 117.961 169.495 42.499 18.405 95.54 20.748 139.043 6.358 58.729-19.409 106.248-66.259 125.49-123.65 17.569-52.539 12.214-113.108-14.055-158.285-7.529-13.051-9.705-20.748-8.701-30.118 4.016-33.631 44.842-46.18 66.259-20.413 7.195 8.533 22.421 39.822 28.444 58.227 10.541 31.958 12.716 46.515 12.549 87.007 0 31.958-0.502 39.153-3.848 54.379-8.031 37.48-23.927 74.123-45.009 103.739-13.72 19.409-43.336 49.359-61.741 62.41-37.145 26.437-80.146 43.671-122.646 49.527-14.892 2.008-44.507 3.346-55.216 2.51zM495.268 581.522c-20.748-3.848-42.834-20.246-52.037-38.651-16.063-31.624-10.876-66.593 13.888-91.19l10.541-10.708 0.335-239.435 0.502-239.603 3.681-6.693c7.027-13.218 17.569-19.242 33.464-19.242 17.067 0.167 30.787 9.872 35.472 24.931 1.339 4.685 1.841 69.94 1.841 240.774v234.248l7.195 4.183c14.222 8.366 27.441 24.596 32.795 40.157 12.884 37.48-4.016 78.641-38.986 95.038-16.063 7.529-31.456 9.537-48.69 6.191z" />
<glyph unicode="&#xe902;" glyph-name="icon_clock" d="M464.314 958.996c-136.533-13.888-264.533-81.652-348.528-184.387-59.399-72.784-96.376-156.612-111.603-252.988-4.35-26.939-5.354-99.388-1.841-130.51 6.86-59.733 21.417-110.264 47.017-163.472 28.946-60.068 59.064-102.4 104.742-147.075 75.963-73.956 173.511-122.478 281.6-139.88 20.915-3.346 29.448-3.848 75.461-3.848 54.379 0 67.597 1.171 106.081 9.537 69.605 14.892 143.895 48.356 200.952 90.52 112.607 83.158 186.729 212.162 203.294 353.548 3.346 28.444 3.346 86.672 0 116.12-17.401 151.759-104.91 292.476-231.069 371.786-62.745 39.32-132.518 65.924-202.458 76.8-18.907 2.844-31.958 3.681-70.107 4.016-25.767 0.335-49.861 0.167-53.542-0.167zM568.889 893.741c82.154-10.708 159.122-43.671 225.882-97.046 18.238-14.724 51.2-47.686 65.924-65.924 29.281-36.643 59.231-89.516 74.29-131.346 8.366-23.090 17.401-59.064 21.417-85.333 3.848-24.931 4.518-101.731 1.004-124.654-13.386-88.345-43.838-158.62-98.050-225.882-13.386-16.732-47.017-50.029-64.586-64.251-33.464-26.771-77.469-52.706-116.288-68.601-87.007-35.472-188.905-41.83-280.094-17.569-56.387 15.059-116.957 45.176-164.978 82.322-87.007 67.43-147.242 171.336-165.814 286.787-4.183 26.102-5.020 88.178-1.673 117.626 12.047 103.739 57.224 195.932 131.681 268.716 25.098 24.429 40.492 36.81 70.107 56.22 88.010 58.060 195.263 82.656 301.176 68.936zM501.292 773.438c-7.195-2.51-15.226-9.537-18.74-16.23-2.008-3.848-2.342-29.95-2.342-163.974 0-152.261 0.167-159.791 3.179-166.149 2.175-4.518 31.624-34.97 90.688-93.867 94.703-94.201 92.193-92.193 108.758-90.688 22.254 2.175 34.468 26.939 22.923 46.515-2.51 4.183-39.99 42.834-83.158 86.17l-78.808 78.641v148.413c0 100.559-0.502 149.919-1.841 153.098-2.844 7.697-11.545 15.393-20.58 18.071-10.039 3.012-11.712 3.012-20.078 0z" />
<glyph unicode="&#xe903;" glyph-name="icon_answer" d="M445.2 956.8c-77-10-154.6-39.2-220-83.2-122.4-82.2-204.2-215.4-222.2-361.6-4-32.6-4-95.4 0-128 14-113 65.2-217.6 146.2-298.8 57.8-57.8 124.4-98.8 201.8-124.2 54.2-17.8 100-25 161-25s106.8 7.2 161 25c77.4 25.4 144 66.4 201.8 124.2 81.4 81.6 132.2 185.2 146.2 298.8 4 32.6 4 95.4 0 128-8.2 66.4-30.2 132.6-63.4 190.4-80.6 140.8-221.8 234.8-381.6 254.6-31 3.8-100.4 3.6-130.8-0.2zM569.8 874.8c190.4-25 342-176.4 369.2-369 4.2-30 4.2-85.6 0-115.6-27.2-192.6-176.6-342-369.2-369.2-30-4.2-85.6-4.2-115.6 0-192.6 27.2-342 176.6-369.2 369.2-4.2 30-4.2 85.6 0 115.6 31 220.4 221.4 380.4 443 372.6 10.4-0.4 29.2-2 41.8-3.6zM489 702.8c-80.6-13-140-82.2-136.8-159.6 0.8-15.2 1.4-17.6 7-24.6 17.2-21.6 48.2-21.8 65.4-0.4 4.8 6.2 6.2 10.8 8.6 27.8 5.4 38.4 23.8 62 56.4 72 16.2 5 28.6 5 44.8 0 63-19.4 76.2-101 22.4-139.2-11.4-8.2-31.4-14.8-44.6-14.8-12 0-25-6.6-33-16.6l-6.2-7.8v-133.2l6.2-7.8c17.4-21.8 48.2-21.8 65.6 0l6.2 7.8 1.2 81.2 6.4 1.2c3.6 0.6 13.2 4.4 21.4 8.4 41 19.6 69.8 51.8 84.6 94.4 5 14.8 6.2 21.2 7 42.6 1 29.2-1.4 46-9.6 67.6-18.2 46.8-59.6 83.6-109 97-12 3.4-52.6 5.8-64 4zM498 252.2c-14.8-4.8-27.8-16.4-33.2-29.4-1.6-3.8-2.8-12.6-2.8-19.8 0-15.2 3-23.4 12-33.8 10.6-11.8 20.4-16.2 38-16.2 11.6 0 16.8 1 23.2 4.4 9.6 5 20.2 16.4 24 25.8 3.6 8.6 3.6 31 0 39.6-4 9.4-14.6 20.8-24 25.6-8.8 4.4-29 6.6-37.2 3.8z" />
<glyph unicode="&#xe904;" glyph-name="icon_card" d="M78 786.2c-26.4-7.4-55.2-30.4-66.6-53.4-11.8-23.8-11.4-10.4-11.4-284.8 0-212 0.6-253.8 3-262.8 9.4-35.6 39.8-65.8 76-75.4 14.8-4 851.2-4 866 0 27.2 7.2 55.8 30 67.6 53.4 11.8 23.8 11.4 10.4 11.4 284.8 0 212-0.6 253.8-3 262.8-9.4 35.6-39.8 65.8-76 75.4-14.2 3.8-853.2 3.8-867 0zM945.8 738c22.2-12.4 34.2-33.2 34.2-60v-15h-936v15c0 30.8 16 54.4 43.8 64.2 5.8 2.2 87.2 2.6 427.2 2.2l420-0.4 10.8-6zM980 576v-41h-936v82h936v-41zM980 346c0-138.8-0.2-143.2-4-153.8-5.2-13.8-16.6-26.8-30.2-34.2l-10.8-6h-846l-10.8 6c-13.6 7.4-25 20.4-30.2 34.2-3.8 10.6-4 15-4 153.8v143h936v-143zM772.2 404c-13.8-3.8-21.8-8.8-31.2-19.2-14.6-16.2-16-22-16-64.8 0-37.6 0-38.2 5.6-49.4 6.6-13.6 18-24.2 33.2-31.4 10.8-5 12.4-5.2 47.2-5.2s36.4 0.2 47.2 5.2c13.2 6.2 25.6 18 32.2 30.2 4.2 8 4.6 11.4 5.2 48 0.6 38.4 0.6 40-4.2 50.2-7 15.2-15.8 24.4-31 31.8-13 6.4-13.6 6.6-45.2 7-24 0.4-35-0.2-43-2.4zM846.2 354.8l5.8-6.2v-27c0-41.2-1.2-42.4-41.2-42.6-25.4 0-28.8 0.4-33.4 4-7 5.4-9.4 15.2-9.4 37s2.4 31.6 9.4 37c4.6 3.6 8 4 34 4h29l5.8-6.2zM133.8 357.2c-4.8-5-5.8-7.6-5.8-15.6 0-10.2 3.6-16.4 11.4-20.4 3-1.6 43.4-2.2 138-2.2 127.2 0 133.8 0.2 139.8 3.8 12.6 7.6 14 25.6 2.6 35l-6.2 5.2h-274l-5.8-5.8zM140.8 277c-7.4-3-12.8-11.8-12.8-21 0-10.6 5.6-18.2 15.6-21 8-2.2 255.2-3 266.2-0.8 13.8 2.8 21.8 19 15.4 32.2-6.2 13-2.6 12.6-148.6 12.4-72.4 0-133.6-0.8-135.8-1.8z" />
<glyph unicode="&#xe905;" glyph-name="icon_dauvao" d="M54.772 698.443c-23.417-3.175-40.087-18.257-46.437-41.278-3.572-11.907-4.366-75.411-3.572-219.882 1.191-198.053 1.588-203.212 9.526-213.929 4.366-5.953 13.098-14.685 19.051-19.051 10.716-8.335 12.304-8.335 478.66-8.335s467.944 0 478.66 8.335c5.953 4.366 14.685 13.098 19.051 19.051 7.938 10.716 8.335 15.876 9.526 213.135 0.794 136.136-0.397 207.181-3.175 218.295-7.144 25.798-21.829 38.896-49.612 43.262-26.592 4.366-881.116 4.763-911.678 0.397zM956.527 448v-190.512h-889.054v381.023h889.054v-190.512zM130.977 448v-127.008h63.504v254.016h-63.504v-127.008z" />
<glyph unicode="&#xe906;" glyph-name="icon_dong" d="M469.929 837.358c-59.535-9.526-107.957-34.927-153.203-80.174-27.386-27.783-37.705-41.278-50.406-67.87-16.273-33.736-28.18-71.839-28.18-91.287 0-13.098-3.175-15.082-36.118-23.417-75.411-19.448-135.343-69.060-170.667-140.899-77.792-159.157 21.829-346.493 198.847-374.673 15.082-2.381 112.322-3.969 236.949-3.969 186.543 0 211.547 0.794 217.104 6.35 7.541 7.541 7.938 17.464 1.588 26.592-4.763 5.557-26.989 6.35-229.408 7.938-193.687 1.191-227.026 2.381-246.078 7.938-75.411 22.623-136.136 82.555-156.775 155.188-9.526 33.34-8.732 92.081 1.588 125.42 25.402 80.571 88.905 136.533 174.636 153.997 19.845 3.969 37.705 8.732 39.69 11.113 2.381 1.984 5.953 19.051 8.335 38.102 7.144 59.138 26.592 100.019 67.473 142.090 44.056 44.85 103.988 69.060 170.667 68.267 119.467-0.794 218.295-92.874 229.805-213.929 1.588-17.067 5.16-31.355 8.335-34.53 3.175-2.778 19.448-7.541 35.721-9.922 38.102-5.953 86.524-28.577 114.704-54.375 86.524-77.792 98.034-209.96 26.592-302.834-10.319-13.495-23.417-27.386-28.577-30.958-13.098-8.335-16.273-23.020-7.541-32.943 11.113-12.304 20.639-9.526 43.659 12.304 42.468 40.087 69.060 94.065 78.189 158.76 14.685 103.194-42.071 212.341-136.93 262.747-18.654 9.526-55.566 22.623-82.555 28.18-9.526 1.984-10.716 4.366-13.098 26.989-8.335 71.045-65.885 155.584-133.358 194.878-50.803 29.371-125.023 43.659-180.986 34.927zM442.146 528.571c-38.102-36.118-66.282-65.885-67.87-71.839-3.175-13.098 3.175-22.226 16.67-23.814 9.526-1.191 18.257 5.557 66.282 53.581l54.772 54.772 54.772-54.772c42.865-42.865 56.757-54.375 65.091-54.375 11.907 0 21.036 11.907 17.464 23.020-3.175 9.129-130.58 135.74-136.533 135.74-2.778 0-34.53-27.783-70.648-62.313zM496.918 482.927c-6.747-6.747-6.747-285.371 0-292.118 7.541-7.541 26.195-5.953 30.958 2.778 5.557 10.716 5.557 275.845 0 286.561-4.763 8.732-23.417 10.319-30.958 2.778z" />
<glyph unicode="&#xe907;" glyph-name="icon_flows" d="M106.338 862.72c-49.625-6.695-77.588-27.175-92.948-68.135-7.089-18.117-7.483-37.022-8.665-265.846-1.182-220.948-0.394-248.517 5.514-270.966 12.603-48.049 55.926-79.557 108.702-79.557 11.422 0 22.843-1.575 25.206-3.151s5.514-14.178 6.695-28.357c5.12-55.138 23.631-87.040 59.471-102.4 34.658-15.36 63.409-16.542 396.209-14.966 302.080 1.182 322.166 1.969 341.465 8.665 27.963 10.24 49.231 29.145 59.865 53.957 13.785 31.902 17.329 85.071 14.966 241.822-1.575 128.394-2.363 143.754-9.452 164.234-10.634 30.326-16.935 39.385-38.597 53.563-13.785 9.058-27.963 13.785-56.714 18.905l-38.597 6.695-3.938 47.655c-5.908 71.68-22.449 101.612-65.772 121.305-19.298 8.665-25.206 9.058-165.809 11.422-79.951 1.575-150.055 3.938-155.569 5.514s-16.542 4.332-24.418 6.302c-10.24 2.757-25.206 13.391-46.868 33.477-37.809 35.446-59.865 46.474-113.822 56.714-43.323 8.665-147.298 10.24-196.923 3.151zM300.898 787.889c29.145-5.908 40.566-12.603 71.286-42.535 15.36-14.572 35.446-30.326 44.898-35.052 38.203-19.692 46.080-20.48 199.286-24.025 165.022-3.938 174.474-5.12 181.957-27.569 2.757-7.483 4.726-29.538 4.726-48.837l0.394-34.658-83.495 1.969c-106.732 2.363-114.609 4.332-156.751 44.111-35.446 32.689-59.471 45.292-104.369 54.351-67.742 13.391-203.618 11.422-242.215-3.545-20.874-7.877-41.354-25.994-51.2-44.898-14.178-27.569-15.754-51.594-15.754-217.403v-161.871l-24.812 2.363c-13.391 1.182-27.569 3.545-31.508 4.726-15.36 6.302-16.542 25.6-16.542 267.815 0 128 1.182 237.095 3.151 243.003 5.12 18.511 19.692 24.418 65.772 27.175 51.2 3.151 128 0.788 155.175-5.12zM466.314 601.6c13.391-4.726 29.145-16.148 49.231-35.446 60.652-57.108 62.228-57.502 248.517-61.046 168.566-3.151 173.686-3.938 180.775-30.326 5.908-20.48 5.908-324.529 0-345.009-8.271-29.538 8.665-28.357-358.006-28.357-356.825 0-349.342-0.394-359.188 22.843-3.938 9.846-5.12 59.471-6.302 218.585-1.182 207.557 0.788 244.185 12.997 256.394 9.452 9.452 35.446 11.815 126.031 10.24 70.498-0.788 90.191-2.363 105.945-7.877z" />
<glyph unicode="&#xe908;" glyph-name="icon_image" d="M12.4 879.6l-12.4-10.4v-418.8c0-465.2-2-432 27.2-440.4 20.4-5.6 949.2-5.6 969.6 0 29.2 8.4 27.2-24.8 27.2 440.4v418.8l-24.8 20.8h-974.4l-12.4-10.4zM964 591.2v-234.8l-99.2 98.8c-102 101.6-106 104.4-126 94.4-4.8-2.4-68.8-64-141.6-136.8l-133.2-132.8-84.8 84.8c-46.8 46.4-89.6 86.4-94.4 89.2-5.2 2.4-14.4 3.6-20 2-6.8-1.6-47.2-38.8-107.6-99.2l-97.2-96.8v566h904v-234.8zM858.8 369.2l105.2-105.2v-194h-904v98l212 212 89.2-89.2c82-82 90-88.8 102.8-88.8 13.2 0 23.2 9.2 150 136 74.8 74.8 136.8 136 138 136s49.2-47.2 106.8-104.8zM430 692.8c-47.6-18.8-72.8-58-69.2-106.4 4-54.4 42.4-92 98-95.6 56.8-4 103.6 38 108.4 97.6 1.6 20.4 0 28.4-8 46-11.2 24.4-29.6 44-50.8 54.4-17.6 8.4-62 10.8-78.4 4zM490.4 620.4c10-9.6 13.6-17.2 13.6-26.4 0-17.6-22.4-40-40-40s-40 22.4-40 40c0 17.6 22.4 40 40 40 9.2 0 16.8-3.6 26.4-13.6z" />
<glyph unicode="&#xe909;" glyph-name="icon_list" d="M238.933 799.573c-8.533-18.773-11.947-46.080-6.827-59.733 10.24-23.893 56.32-27.307 397.653-23.893l385.707 5.12 5.12 40.96c3.413 22.187-3.413 47.787-17.067 54.613-11.947 8.533-184.32 15.36-384 15.36-339.627 0-363.52-1.707-380.587-32.427zM237.227 480.427c-15.36-18.773-17.067-34.133-3.413-54.613 15.36-25.6 61.44-29.013 399.36-29.013h382.293v102.4l-377.173 5.12c-329.387 3.413-380.587 0-401.067-23.893zM232.107 156.16c-5.12-13.653-1.707-40.96 6.827-59.733 17.067-30.72 40.96-32.427 380.587-32.427 199.68 0 372.053 6.827 384 15.36 13.653 6.827 20.48 32.427 17.067 54.613l-5.12 40.96-385.707 5.12c-341.333 3.413-387.413 0-397.653-23.893z" />
<glyph unicode="&#xe90a;" glyph-name="icon_music" horiz-adv-x="924" d="M592.512 866.048c-162.432-51.584-297.216-95.104-299.648-96.512-2.56-1.536-6.144-5.248-8.192-8.192l-3.712-5.504-0.384-291.456-0.256-291.328-9.472 5.632c-20.096 12.032-48.768 21.504-75.392 24.832-17.664 2.304-52.864 1.024-68.864-2.432-16.896-3.712-30.208-8.192-45.44-15.36-18.816-8.96-31.488-18.048-45.952-32.64-15.104-15.36-23.296-28.16-29.952-47.104l-4.608-13.184v-22.4c0.128-21.12 0.256-23.040 3.712-33.28 6.912-20.736 16.64-36.096 33.152-51.968 13.056-12.8 23.808-20.352 40.064-28.544 28.032-14.080 50.048-19.328 85.632-20.224 22.272-0.64 27.648-0.256 41.472 2.048 17.664 3.072 41.344 10.368 54.784 17.152 24.576 12.416 46.336 31.104 59.648 51.072 7.936 11.904 12.416 21.632 16.64 36.864l2.816 9.6 0.64 236.672 0.64 236.8 524.8 166.784 0.384-165.76c0.128-91.264 0-166.016-0.256-166.4-0.384-0.256-2.176 0.64-4.224 2.048-6.656 4.736-26.624 14.080-38.528 18.048-24.192 8.064-34.944 9.6-66.816 9.6-25.216 0-30.464-0.384-42.24-2.816-93.952-20.352-146.304-92.544-121.472-167.296 15.872-47.872 65.408-84.864 128-95.488 13.824-2.304 19.2-2.688 41.472-2.048 28.16 0.768 41.216 2.816 61.696 9.984 52.48 18.176 90.752 56.832 99.456 100.352 1.92 9.216 2.048 43.52 1.792 359.168l-0.384 348.8-3.584 5.376c-5.632 8.576-12.416 12.288-23.168 12.672-8.832 0.384-16.384-1.92-304.256-93.568zM865.28 822.656v-66.816l-262.016-83.072c-144.256-45.696-262.528-83.328-263.168-83.584-0.512-0.384-0.768 29.824-0.64 66.816l0.384 67.456 261.12 82.944c143.616 45.696 261.888 83.072 262.784 83.072 1.152 0.128 1.536-14.080 1.536-66.816zM779.008 330.88c16.768-2.944 27.392-6.4 41.856-13.824 17.024-8.576 32.768-23.552 39.424-37.376 4.096-8.448 4.352-9.728 4.352-22.4s-0.256-13.952-4.352-22.4c-3.2-6.656-7.168-11.776-15.488-19.968-9.6-9.6-12.928-12.032-25.728-18.304-8.448-4.224-19.968-8.704-27.392-10.624-11.52-3.072-15.104-3.456-35.84-3.456-19.712-0.128-24.704 0.384-34.304 2.816-28.672 7.168-49.152 19.2-63.616 37.376-9.728 12.032-12.16 18.816-12.16 34.56 0 12.672 0.256 13.952 4.224 22.144 18.304 37.376 76.416 60.544 129.024 51.456zM193.152 144c37.248-6.144 69.376-26.496 81.152-51.456 19.2-41.088-18.176-85.248-81.024-95.744-18.304-3.072-43.136-2.176-60.8 2.432-35.072 8.96-63.488 31.36-71.168 55.936-16.384 52.48 55.936 101.12 131.84 88.832z" />
<glyph unicode="&#xe90b;" glyph-name="icon_plus" d="M109.945 937.364c-28.025-14.013-59.284-42.038-75.453-66.829l-29.103-44.194-3.234-365.406c-3.234-351.394-2.156-367.562 19.402-411.756 12.935-26.947 40.96-59.284 66.829-76.531l44.194-31.259h758.838l44.194 31.259c25.869 17.246 53.895 49.583 66.829 76.531 21.558 44.194 22.636 60.362 19.402 411.756l-3.234 365.406-29.103 44.194c-17.246 25.869-47.427 52.817-75.453 66.829-45.272 21.558-62.518 22.636-403.133 22.636s-356.783-1.078-400.977-22.636zM875.251 811.251c24.792-24.792 24.792-24.792 24.792-363.251s0-338.459-24.792-363.251-24.792-24.792-363.251-24.792-338.459 0-363.251 24.792-24.792 24.792-24.792 362.173c0 314.745 1.078 339.537 20.48 360.017 10.779 12.935 30.181 24.792 43.116 26.947 11.857 3.234 167.074 4.312 342.771 3.234 317.979-1.078 321.213-1.078 344.926-25.869zM460.261 727.175c-4.312-4.312-7.545-54.973-7.545-113.179v-105.634l-220.968-6.467v-107.789l219.891-6.467 6.467-219.891h107.789l6.467 219.891 219.891 6.467v107.789l-219.891 6.467-6.467 219.891-48.505 3.234c-26.947 2.156-52.817 0-57.128-4.312z" />
<glyph unicode="&#xe90c;" glyph-name="icon_return" d="M329.979 917.368c-2.926-0.836-7.314-2.717-9.613-4.18-8.568-4.389-300.513-207.517-306.573-213.159-14.211-13.166-17.972-36.989-8.568-55.798 2.926-5.851 7.732-12.33 11.076-14.838 7.523-5.433 307.618-187.455 318.067-192.888 18.808-9.613 40.96-6.478 54.753 7.732 10.031 10.24 14.211 20.689 14.211 35.318 0 10.658-2.090 16.3-20.898 56.216-11.494 24.242-20.898 44.722-20.898 45.558s99.474 1.254 221.1 1.045l220.891-0.627 9.822-5.642c5.224-3.344 12.539-9.404 16.091-13.584 13.166-15.882 12.748-9.822 12.748-193.724 0-163.84-0.209-167.602-4.389-176.797-5.224-11.494-14.838-21.943-25.913-27.794l-8.359-4.598-507.82-2.090-11.912-4.807c-6.687-2.717-17.136-9.404-23.197-15.047-20.898-19.017-27.794-40.124-26.122-78.785 0.836-16.3 2.299-25.913 5.642-34.482 6.060-15.882 21.943-33.228 37.407-40.751l11.912-5.851h537.078l17.136 4.598c38.243 10.24 69.799 26.54 98.638 51.2 36.989 31.556 62.694 72.934 76.069 123.507 4.598 16.927 4.598 18.39 4.598 213.577v196.441l-5.851 20.689c-23.197 83.174-85.055 145.45-168.647 169.9l-19.853 5.642-477.1 2.299 18.599 45.976c10.24 25.078 19.226 49.319 19.853 53.499 2.926 18.39-7.941 39.497-24.66 48.065-9.404 4.807-26.958 6.896-35.318 4.18z" />
<glyph unicode="&#xe90d;" glyph-name="icon_search" d="M380.942 958.078c-172.822-19.746-320.131-145.562-365.914-312.792-10.485-38.269-13.63-60.811-14.504-104.322-1.398-59.238 3.844-96.983 20.445-147.134 21.319-65.005 52.947-117.078 100.478-165.832 68.325-70.247 151.503-112.71 248.835-127.214 28.658-4.194 94.711-4.194 122.496 0 75.315 11.708 143.989 40.541 201.655 84.751l10.135 7.863 125.291-125.117c68.849-68.674 127.738-126.34 131.058-127.913 8.213-4.194 22.891-5.242 32.852-2.446 11.533 3.145 25.163 16.775 28.309 28.309 2.796 9.96 1.747 24.639-2.446 32.852-1.573 3.32-59.238 62.384-128.087 131.233l-125.117 125.291 7.863 10.135c43.861 56.268 73.043 125.291 84.926 201.48 4.194 27.61 4.369 93.663 0 122.496-18.698 125.641-87.722 232.934-194.315 302.657-52.947 34.599-120.923 58.714-185.229 65.878-18.523 2.097-80.033 1.922-98.73-0.175zM461.149 871.754c33.726-1.922 81.256-14.678 116.38-31.279 99.429-47.181 170.9-139.096 192.044-246.564 29.881-151.853-47.88-306.501-188.724-375.001-187.151-91.216-412.046 5.242-477.575 204.625-19.571 59.588-21.668 127.388-6.116 189.597 36.347 143.814 164.784 250.583 312.617 259.495 10.659 0.524 22.717 0.874 27.085 0.524 4.369-0.175 15.203-0.874 24.289-1.398z" />
<glyph unicode="&#xe90e;" glyph-name="icon_tep" d="M241.108 958.159c-11.21-2.175-28.277-8.031-39.488-13.72-36.141-18.071-61.407-48.021-75.461-89.851l-4.852-14.222v-784.732l4.852-14.222c17.067-50.698 49.025-82.656 99.723-99.723l14.222-4.852h543.791l14.222 4.852c50.698 17.067 82.656 49.025 99.723 99.723l4.852 14.222 0.502 251.817c0.335 184.22 0 254.494-1.339 261.856-1.171 5.522-4.183 14.892-6.86 20.915-4.685 10.207-14.557 20.413-175.184 180.873l-170.165 169.997-14.222 6.86c-25.935 12.549-19.242 12.047-160.627 11.88-69.438-0.167-129.673-0.837-133.689-1.673zM482.217 778.959l0.502-120.973 4.852-14.222c9.203-27.441 21.25-46.85 39.655-64.586 17.903-16.899 34.133-26.437 60.068-35.137l14.222-4.852 241.945-1.004-0.502-232.91c-0.502-206.975-0.837-233.746-3.179-240.439-10.876-31.122-31.624-52.706-60.737-63.414l-11.88-4.35h-510.327l-11.88 4.35c-29.95 10.876-53.208 36.141-61.239 66.092-3.179 11.712-3.179 746.75-0.167 759.801 6.191 26.269 25.935 50.363 50.865 62.41 9.203 4.35 18.238 7.362 25.098 8.199 5.856 0.837 58.227 1.506 116.455 1.673l105.746 0.167 0.502-120.805zM794.437 598.923c-5.856-0.335-47.854-0.335-93.365 0l-82.824 0.502-11.88 4.35c-29.114 10.541-50.196 32.627-60.737 63.414-2.175 6.358-2.677 22.421-3.012 101.229l-0.669 93.699 262.86-262.693-10.374-0.502zM498.614 464.565c-2.342-0.837-6.024-3.346-8.031-5.354-8.533-7.864-8.701-9.203-8.701-62.912v-50.196l-51.702-0.502c-49.527-0.502-52.037-0.669-56.554-4.016-2.51-1.841-6.525-6.024-8.533-9.203-3.514-5.020-3.848-7.362-3.346-18.238 0.669-14.557 4.183-21.082 14.222-26.102 5.689-2.844 11.545-3.179 56.052-3.681l49.694-0.502 0.502-51.367c0.502-50.029 0.669-51.535 4.183-56.554 10.876-15.226 40.324-15.226 51.2 0 3.514 5.020 3.681 6.525 4.183 56.554l0.502 51.367 49.694 0.502c44.507 0.502 50.363 0.837 56.052 3.681 10.039 5.020 13.553 11.545 14.222 26.102 0.502 10.876 0.167 13.218-3.346 18.238-2.008 3.179-6.024 7.362-8.533 9.203-4.518 3.346-7.027 3.514-56.554 4.016l-51.702 0.502v50.698c0 49.861 0 50.865-3.681 56.22-6.525 9.537-11.88 12.382-24.429 12.884-6.191 0.335-13.051-0.335-15.393-1.339z" />
<glyph unicode="&#xe90f;" glyph-name="icon_trihoan" d="M122 930v-30h60v-8.4c0-4.8 1.4-20.8 3.2-35.6 10.8-94.4 41.4-168.4 96.6-234.4 8.8-10.6 30-32.2 46.6-47.8 81-76 92-91 91.8-126 0-35-10.8-49.6-91.8-125.6-16.6-15.6-37.8-37.2-46.6-47.8-55.2-66-85.8-140-96.6-234.4-1.8-14.8-3.2-30.8-3.2-35.4v-8.6h-60v-60h780v60h-59.4l-1.4 19.6c-6.2 85.2-29.4 158.8-69 218.4-20.2 30.6-42.2 56-76.6 88.2-80.8 75.8-92 91-92 125.8s11 49.6 91.8 125.6c34.6 32.4 56.6 57.8 76.8 88.4 39.6 59.6 62.8 133.2 69 218.6l1.4 19.4h59.4v60h-780v-30zM779.2 882.6c-2.8-36.2-8.2-64.6-18.6-99l-7.2-23.6h-482.8l-7.2 23.6c-10.4 34.4-15.8 62.8-18.6 99l-1.4 17.4h537.2l-1.4-17.4zM482 324.2v-99.8l-8.8-2.2c-4.8-1.2-51.2-19.8-103.2-41.2s-95-38.6-95.4-38.2c-1.4 1.2 17.4 38.4 26.4 52.4 19.8 31.2 41.4 54.6 103.4 113.4 19.4 18.4 39.8 39.4 45.4 47 13.4 17.4 25.4 41.6 28.6 56.6 1.2 6.4 2.6 11.8 3 11.8s0.6-44.8 0.6-99.8zM557 382.4c11.8-22.4 25.8-39 61.6-72.8 62.2-58.8 84.6-83.2 104.4-114.4 9-14 27.8-51.2 26.4-52.4-0.4-0.4-43.4 16.8-95.4 38.2s-98.4 40-103.2 41.2l-8.8 2.2 0.2 100.4v100.2l3.8-14.6c2.2-8 7-20.6 11-28z" />
<glyph unicode="&#xe910;" glyph-name="icon_waring" d="M475.083 911.723c-17.039-4.51-35.247-13.030-49.947-23.554-13.531-9.689-33.744-30.737-43.098-45.103-16.371-25.224-366.335-638.956-371.513-651.485-6.181-15.201-10.524-37.753-10.524-54.29 0-14.533 4.009-37.085 8.854-50.615 5.346-14.7 20.046-40.76 29.4-52.453 16.872-20.881 46.105-39.924 76.174-49.446l11.693-3.675 380.868-0.501c344.117-0.334 382.204-0.167 394.232 2.339 37.92 7.517 71.162 29.4 90.874 59.636 11.192 16.872 23.387 42.764 27.062 57.13 7.35 29.233 5.513 63.311-5.011 90.206-6.014 15.702-374.353 659.503-384.376 672.031-11.526 14.366-29.066 28.064-47.608 37.252-25.725 12.696-35.748 15.201-65.984 15.869-23.22 0.668-27.396 0.334-41.094-3.341zM543.572 843.067c15.034-5.178 32.574-17.206 41.762-28.565 8.185-9.856 367.17-636.116 372.85-650.315 5.011-12.194 7.851-30.57 6.515-41.094-1.838-13.865-4.176-21.048-12.194-37.586-12.696-26.226-30.904-41.261-57.464-47.608-15.869-3.675-742.525-3.842-756.891 0-33.242 8.686-62.476 39.256-70.661 73.668-3.508 15.201-2.339 34.579 3.007 49.112 2.172 6.014 84.86 152.18 183.585 324.907 98.892 172.727 181.915 318.058 184.42 322.902 9.689 17.874 34.078 34.746 55.961 38.588 14.032 2.506 35.414 0.668 49.112-4.009zM502.979 601.684c-8.185-2.005-13.865-6.682-18.041-15.034l-3.842-7.35v-232.53l3.842-7.35c2.005-4.009 5.68-8.686 8.018-10.524 9.355-6.849 28.732-6.682 38.087 0 2.339 1.838 6.014 6.515 8.185 10.524l3.675 7.35v115.764c0 123.448 0 122.446-8.018 131.299-6.348 7.016-20.881 10.691-31.906 7.851zM494.46 227.665c-10.023-5.346-12.362-10.023-13.030-27.396-1.169-27.229 4.009-32.908 30.57-32.908 13.865 0 14.199 0 14.199 4.009 0 2.339 0.835 4.677 1.838 5.346 4.343 2.673 8.185 15.034 8.185 26.895 0 10.524-0.501 12.529-4.343 17.206-2.506 2.84-6.515 6.181-9.188 7.517-6.682 3.508-21.215 3.174-28.231-0.668z" />
<glyph unicode="&#xe911;" glyph-name="icon-chat" d="M471.68 959.232c-79.872-8.064-141.824-26.496-204.8-60.8-19.968-10.88-55.552-34.432-72.32-47.872-59.264-47.36-105.6-103.936-138.752-169.6-31.872-63.104-49.024-124.416-54.656-195.2-2.048-26.368-0.768-77.184 2.688-103.040 12.288-92.16 45.696-173.696 101.248-246.528l10.24-13.44-6.016-11.136c-13.44-24.576-28.288-44.8-43.52-59.136-8.064-7.552-17.024-13.824-34.432-24.064-14.336-8.576-22.4-23.424-22.4-41.216 0-26.112 16.256-44.032 43.904-48.128 15.232-2.304 52.736-2.304 70.016 0 30.464 4.096 64 13.696 92.8 26.624 14.976 6.784 38.272 19.584 48.64 26.624l5.12 3.584 12.416-6.272c40.96-20.48 93.312-37.888 138.24-45.952 29.44-5.248 44.032-6.528 80-7.296 54.144-1.024 89.6 2.688 136.704 14.336 72.064 17.792 136.832 49.92 196.736 97.664 21.888 17.408 60.672 56.192 78.336 78.336 61.568 77.184 97.024 162.56 109.824 263.68 2.688 21.376 2.304 97.024-0.64 119.68-18.816 146.048-94.080 271.616-214.656 357.76-55.296 39.424-123.776 68.864-192.64 82.56-37.632 7.424-49.536 8.576-95.36 8.96-22.912 0.256-43.904 0.128-46.72-0.128zM558.848 899.2c133.504-14.080 252.928-85.632 328.064-196.48 41.728-61.696 66.432-128.64 75.904-205.44 2.56-21.12 2.176-82.432-0.64-103.68-13.568-101.248-55.68-189.44-124.416-260.352-36.224-37.376-75.136-66.176-120.32-89.088-48.64-24.832-99.2-39.936-156.16-46.976-21.376-2.56-79.872-2.176-102.4 0.64-60.032 7.808-114.304 25.344-166.4 53.888-15.872 8.576-17.024 9.088-24.96 9.088-9.472 0-9.984-0.256-34.688-17.152-26.752-18.048-58.24-32.128-89.728-39.808-14.208-3.456-46.976-8.448-49.408-7.424-0.64 0.128 3.712 4.736 9.728 9.984 25.6 22.528 51.84 60.288 70.272 101.12 4.992 11.264 6.016 14.72 6.016 21.12-0.128 9.6-1.92 13.312-14.336 28.16-24.704 29.44-42.624 57.088-59.776 92.16-6.528 13.44-14.592 31.36-17.664 39.808-55.808 150.144-29.44 316.8 69.888 441.984 15.616 19.584 51.456 55.808 70.656 71.040 32.768 26.112 79.488 53.504 115.84 67.712 39.040 15.232 79.232 25.216 119.424 29.568 22.144 2.432 72.192 2.432 95.104 0.128zM285.44 614.912c-10.624-4.608-16.896-14.72-16.896-26.752 0-14.080 9.088-25.984 22.144-28.8 5.12-1.024 64.128-1.28 225.152-1.024l218.24 0.384 6.144 3.072c11.776 5.76 18.176 19.968 15.104 33.152-1.92 7.552-8.448 15.872-15.616 19.456-4.864 2.56-8.704 2.56-227.328 2.56-195.84-0.128-222.976-0.384-226.944-2.048zM284.032 473.984c-8.192-4.224-13.44-11.136-15.104-19.84-2.432-13.824 3.328-26.112 15.104-32l7.040-3.584h220.032c161.28 0 221.44 0.384 225.024 1.408 11.904 3.584 19.712 14.592 19.584 28.032-0.128 13.568-7.68 24.448-19.584 28.032-3.584 1.024-63.744 1.408-225.024 1.408h-220.032l-7.040-3.456zM288.128 336c-20.352-6.4-26.496-34.56-10.752-49.536 8.32-7.936-8.32-7.424 235.264-7.424 218.368 0 222.208 0 227.072 2.56 2.816 1.28 7.040 4.864 9.472 7.808 12.032 14.080 7.552 36.736-8.96 44.8l-6.144 3.072-220.16 0.256c-183.552 0.128-221.056-0.128-225.792-1.536z" />
<glyph unicode="&#xe912;" glyph-name="icon-check" d="M453.773 957.791c-61.239-7.429-116.856-24.295-171.671-51.802-128.1-64.853-221.264-176.489-262.827-315.432-13.252-43.972-19.275-89.148-19.275-142.557 0-85.133 16.264-154.202 53.609-229.296 77.704-155.206 230.3-261.622 402.573-280.496 25.098-2.811 86.538-2.811 111.636 0 60.637 6.626 117.258 23.492 173.478 51.401 127.498 63.849 221.867 176.891 263.429 315.834 11.043 36.744 19.275 89.148 19.275 122.679v19.878h-50.999c-44.574 0-51.2-0.402-52.204-3.213-0.602-1.807-1.205-9.437-1.205-17.267 0-27.507-9.236-76.097-21.283-111.837-7.831-23.090-29.315-66.46-44.173-89.349-42.566-64.653-97.581-112.841-167.655-146.573-57.625-27.708-109.829-39.555-174.482-39.555s-116.856 11.846-174.482 39.555c-86.739 41.763-152.195 107.219-193.757 193.757-27.507 57.424-39.555 110.431-39.555 174.482s12.047 117.057 39.555 174.482c41.562 86.538 107.42 152.195 193.958 193.757 58.027 27.909 109.628 39.555 175.285 39.555 36.342 0 65.456-3.213 94.569-10.441l17.468-4.216 41.161 41.362c22.889 22.689 40.96 41.763 40.358 42.365-4.618 4.417-82.723 24.295-119.667 30.318-23.090 3.815-109.628 5.622-133.12 2.61zM680.659 607.624l-219.859-219.859-158.62 158.62-73.286-73.286 115.049-115.049c63.046-63.046 115.853-114.849 116.856-114.849 1.205 0 117.258 115.25 258.008 256l256 256-36.141 36.141c-19.878 19.878-36.543 36.141-37.145 36.141s-99.991-98.987-220.863-219.859z" />
<glyph unicode="&#xe913;" glyph-name="icon-cskh" d="M460.8 931.82c-112.719-13.495-186.94-62.71-225.042-148.837-11.907-26.989-21.433-67.473-21.433-92.478 0-13.098-1.984-18.654-9.526-24.608-16.67-13.098-29.767-84.936-22.623-124.626 9.922-53.581 36.515-82.158 96.447-102.4 3.969-1.191 7.938-9.922 10.716-22.623 9.922-45.643 38.896-102.003 65.488-126.611 5.953-5.953 10.319-13.891 10.319-20.242 0-9.922-1.984-10.716-38.499-19.448-80.967-19.448-170.667-57.153-221.867-93.668-62.71-44.85-100.812-109.147-100.812-171.064 0-27.386-36.118-25.402 508.031-25.402s508.031-1.984 508.031 25.402c0 61.916-38.102 126.214-101.209 171.064-51.597 36.912-138.915 73.823-221.073 93.668-35.721 8.335-38.896 9.922-38.896 18.654 0 5.557 7.144 17.464 17.86 29.371 21.829 24.211 47.231 75.014 56.36 111.529 3.572 15.082 8.335 27.783 10.716 28.577 74.22 20.242 109.544 76.998 97.637 157.569-5.557 39.293-14.685 65.885-24.211 71.045-5.953 2.778-7.541 8.335-7.541 23.020 0 26.195-13.098 74.617-28.577 106.369-15.876 32.546-55.566 75.808-86.127 94.065-56.757 34.133-153.6 51.597-234.171 41.674zM611.225 884.589c98.431-28.18 152.012-94.065 160.744-198.45 2.381-29.767 3.969-34.927 13.891-44.056 12.701-11.907 19.845-38.896 19.845-76.602 0-34.133-14.685-62.313-39.69-76.998l-17.86-10.716 8.335 11.907c12.701 17.86 20.639 38.499 23.417 62.71 2.381 17.464 1.191 25.402-5.953 41.674-4.763 11.113-11.907 23.020-15.876 26.592-4.763 4.366-8.335 15.082-9.922 29.371-3.969 34.53-17.067 79.777-29.767 102.003-13.891 23.814-47.628 56.757-69.854 68.267-32.546 16.67-60.726 21.829-122.642 22.623-102.003 1.588-144.074-9.526-186.94-50.406-35.721-33.736-52.391-69.457-61.519-130.977-3.572-25.798-7.144-35.721-15.479-45.247-24.608-28.18-24.608-78.189 0-117.879l12.304-19.448-17.067 9.922c-32.149 18.654-44.85 60.329-34.927 114.704 3.969 22.623 7.144 30.164 18.257 40.881 12.701 12.701 13.495 15.082 13.495 40.484 0.397 89.699 57.55 167.491 144.471 195.671 55.566 17.86 157.172 19.845 212.738 3.969zM592.967 800.447c57.153-11.907 98.034-55.963 111.529-121.054 9.922-45.643 13.098-42.468-40.484-39.69-56.36 2.778-101.606 14.685-153.997 40.484-19.448 9.922-38.102 17.86-40.881 17.86-3.175 0-12.701-5.953-21.829-13.495-31.355-25.402-77.792-42.071-117.085-42.071h-17.067l2.381 15.082c13.495 80.174 48.819 126.214 108.75 142.090 23.020 6.35 140.899 6.747 168.682 0.794zM508.428 638.909c55.169-26.195 127.405-41.278 188.13-39.69 30.958 0.794 31.752 0.794 38.499-10.716 13.891-23.020 6.35-57.55-20.242-90.493-6.747-8.335-12.304-19.051-12.304-23.814 0-6.747-11.113-14.288-53.581-36.912-29.371-15.876-55.169-28.974-57.153-28.974s-8.732 2.778-14.685 5.953c-55.169 28.577-105.972-44.056-61.122-87.318 15.876-15.479 47.231-18.257 66.679-5.953 13.098 7.938 24.608 28.577 24.608 43.262 0 5.953 10.319 13.098 42.468 29.767 23.020 12.304 43.262 21.433 44.453 20.242 3.969-4.366-13.098-46.040-28.577-69.854-32.149-49.216-73.823-71.045-141.693-74.22-65.488-2.778-107.56 11.51-145.662 49.612-29.371 28.974-56.757 98.431-56.757 143.281 0 14.685-3.175 22.623-18.654 44.85-15.082 22.226-18.654 31.355-19.845 48.025-2.381 29.767 8.732 46.834 29.371 46.834 41.674 0 105.178 17.86 137.327 38.102 11.51 7.541 21.829 13.495 23.020 13.495s17.464-7.144 35.721-15.479zM446.512 240.819c38.499-10.319 116.688-8.732 150.028 3.572l22.623 8.335v-74.617l-16.273-11.907c-20.639-14.685-36.912-19.448-75.808-22.623-47.231-3.572-90.493 7.144-113.116 27.783-8.335 7.144-9.129 11.907-9.129 45.643 0 34.133 0.794 36.912 7.144 34.53 3.572-1.984 19.448-6.747 34.53-10.716zM365.941 196.366c2.778-30.958 11.51-46.834 34.927-62.313 19.051-12.701 61.519-27.386 79.777-27.386h11.51v-107.163h-449.29l2.381 15.082c12.304 67.87 89.699 132.564 210.753 175.033 28.18 9.922 91.287 28.974 105.575 31.752 1.588 0 3.572-11.113 4.366-25.005zM777.526 186.443c78.189-28.974 143.678-71.839 172.651-112.719 16.273-22.623 30.164-54.772 30.164-68.267 0-5.16-29.767-5.953-224.248-5.953h-224.248v107.163h11.51c18.257 0 60.726 14.685 79.777 27.386 23.417 15.479 31.355 30.164 34.53 61.122l2.381 25.798 42.071-11.113c23.020-6.35 57.153-16.67 75.411-23.417z" />
<glyph unicode="&#xe914;" glyph-name="icon-messenger" d="M60.2 834c-23.6-8.6-41.2-24.4-52.8-47.8l-6.4-13.2v-650l6.8-14c9-18.2 25-34.2 43.2-43.2l14-6.8h894l14 6.8c18.2 9 34.2 24.8 43.2 43.2l6.8 14v650l-6.8 14c-9 18.2-25 34.2-43.2 43.2l-14 6.8-444 0.4c-434.2 0.4-444.2 0.4-454.8-3.4zM716.6 575.6l-202.4-202.4-12.6 11.4c-7 6.2-99 97.4-204.6 202.4l-192 190.8 814 0.2-202.4-202.4zM345.6 450.2c0.2-0.6-64-65.6-142.6-144.2l-143-143v571.4l142.6-141.4c78.2-78 142.6-142.2 143-142.8zM964 447.6v-284.6l-285 285 142 142c78 78 142.2 142 142.4 142 0.4 0 0.6-128 0.6-284.4zM440 356.8c57.2-57.4 58.8-58.8 73.8-58.8 7.2 0 13.2 1.2 16.2 3.2 2.8 1.8 27.2 25.4 54.6 52.6l49.4 49.2 285-285h-814l143 143c78.6 78.6 143.4 143 144 143s22.2-21.2 48-47.2z" />
<glyph unicode="&#xe915;" glyph-name="icon-note" d="M172 956c-8.2-2.2-23.6-8.2-34-13.4-16.2-8-21.8-12.4-39-29.6s-21.6-22.8-29.6-39c-5.2-10.4-11.2-26.2-13.4-34.8-4-15.6-4-23.6-4-391.2s0-375.6 4-391.2c2.2-8.6 8.2-24.4 13.4-34.8 8-16.2 12.4-21.8 29.6-39s22.8-21.6 39-29.6c33.8-16.8 38-17.4 135.6-17.4h85l8.6 5c12.6 7.4 18.8 19 18.8 35s-6.2 27.6-18.8 35l-8.6 5h-71.8c-39.4 0-77.6 1-84.8 2-36.2 5.8-62.8 32.6-68 69-2.6 19.2-2.6 702.8 0 722 5.4 36.8 32.2 63.8 69 69 17.8 2.4 493.2 2.6 510.4 0.2 34.8-5.2 62.2-31.4 68.6-66 1.2-6.4 2-61.8 2-139.8 0-127.6 0-129.2 4.2-138 6.4-13 17-19.2 34.6-20 11.8-0.4 15.4 0.2 22.2 4 9.2 5.4 16.2 14.8 19.2 26 1.4 5.2 1.8 52.8 1.4 144.2-0.8 132.6-0.8 136.8-5.2 151.8-4.2 15.6-15 39-23 50.4-22.4 32.4-55.8 55.4-94.2 65.2-15.6 4-21.6 4-286 3.8-260 0-270.8-0.2-285.2-3.8zM230.6 714.8c-25.6-15.2-25.6-54.8 0.2-69.8l8.6-5h437.8l9.4 5.8c12 7.8 18 19.2 18 34.2s-6 26.4-18 34.2l-9.4 5.8h-438.2l-8.4-5.2zM230.6 554.8c-25.6-15.2-25.6-54.8 0.2-69.8l8.6-5h437.8l9.4 5.8c12 7.8 18 19.2 18 34.2s-6 26.4-18 34.2l-9.4 5.8h-438.2l-8.4-5.2zM817 412.2c-29.6-8.4-28.8-7.6-157.6-136-65.8-65.6-120.4-120.6-121.4-122.4s-13-40.2-26.8-85.4c-28.2-92-29.2-98.2-20.2-113.6 3-5.2 8.6-10.8 13.8-13.8 14.8-8.6 21.6-7.6 114.4 18 45.8 12.8 85.6 24.4 88.6 26 2.8 1.4 58.8 56.6 124.4 122.4 115.4 115.8 119.6 120 126.4 134.6 9 19.6 12.2 33.2 12.2 54 0 34.8-10.8 60.4-35.6 85-17.4 17.4-32.6 26.2-54.2 32-16 4-48.4 3.8-64-0.8zM868 330c22.6-11.6 27.6-40 10.4-60l-7-8.4-27.6 27.6c-30.6 30.6-30 28.8-14 39.2 11.2 7 26.2 7.6 38.2 1.6zM739.4 130.4l-72.8-72.8-38.6-10.8c-21.4-5.8-39.2-10.4-39.6-10s4.4 17.2 10.6 37.4l11.2 36.8 73.4 73.4 73.4 73.6 55-55-72.6-72.6zM230.6 394.8c-25.6-15.2-25.6-54.8 0.2-69.8l8.6-5h137.4c130.8 0 137.8 0.2 144.8 3.8 28 14.4 28.8 56 1.4 71.6l-8 4.6h-276l-8.4-5.2z" />
<glyph unicode="&#xe916;" glyph-name="icon-save" horiz-adv-x="820" d="M242.56 958.080c-34.304-9.344-58.24-38.272-60.416-73.216-0.64-10.88-0.512-12.288 2.688-18.688 8.448-17.408 31.36-21.632 45.312-8.192 6.016 5.76 8.064 10.24 9.344 20.608 1.408 11.136 5.248 17.408 12.928 21.12l5.632 2.688h243.584c236.288 0 243.584-0.128 248.192-2.432 5.376-2.816 8.064-5.504 11.008-11.264 1.92-3.712 2.048-33.664 2.048-351.104s-0.128-347.392-2.048-351.104c-4.48-8.832-10.88-12.8-22.656-14.208-12.928-1.408-20.352-6.656-25.344-17.92-5.888-13.568 0.128-29.952 13.568-36.992 5.888-3.072 20.608-3.456 31.744-0.896 28.288 6.528 53.12 30.976 60.416 59.52 1.664 6.656 1.92 49.536 1.92 361.6 0 392.448 0.768 359.808-8.576 378.88-6.4 13.312-21.632 28.544-34.944 34.944-18.944 9.216 2.432 8.576-276.48 8.448-207.488 0-252.672-0.384-257.92-1.792zM70.4 780.8c-18.176-2.176-32.64-9.472-46.848-23.68-7.808-7.68-11.52-12.544-14.976-19.84-9.344-19.072-8.576 13.568-8.576-378.88s-0.768-359.808 8.576-378.88c6.4-13.312 21.632-28.544 34.944-34.944 18.944-9.344-2.688-8.704 279.168-8.32l253.952 0.384 8.96 3.584c24.064 9.6 39.808 26.112 49.664 51.712l2.816 7.424 0.384 354.56c0.384 395.904 1.152 363.52-8.704 383.104-12.16 24.192-34.944 40.192-62.72 43.776-11.52 1.408-484.096 1.408-496.64 0zM569.344 719.744c3.584-2.304 6.528-5.76 8.576-9.856l3.2-6.4v-343.68c0-232.576-0.384-345.344-1.28-348.544-1.792-6.144-6.784-12.032-12.928-15.104-4.864-2.56-9.216-2.56-247.552-2.56-215.424 0-243.2 0.256-247.296 1.92-6.144 2.56-9.088 5.248-12.032 11.136-2.432 4.736-2.432 13.184-2.176 353.536l0.384 348.672 3.84 4.864c2.176 2.56 5.888 5.76 8.32 7.040 4.224 2.304 13.184 2.432 248.96 2.432h244.608l5.376-3.456z" />
<glyph unicode="&#xe917;" glyph-name="icon-setting" d="M443.904 957.056c-16.512-5.632-29.44-17.28-36.992-33.536-2.944-6.016-4.992-15.616-10.112-45.44-3.584-20.736-6.656-39.040-7.040-40.576-0.512-2.048-2.688-3.456-9.216-5.632-14.336-4.608-27.008-9.856-44.032-17.92l-16.128-7.808-30.464 22.144c-16.896 12.032-34.048 23.68-38.4 25.6-16.768 7.808-36.48 7.808-53.888-0.128-7.68-3.456-12.288-7.552-45.184-40.064-20.096-19.84-38.4-38.4-40.832-41.088-15.488-18.176-18.816-47.232-7.808-68.992 2.176-4.224 29.568-43.776 45.056-65.024 2.432-3.328 2.432-3.328-1.408-10.88-6.016-11.904-13.696-30.592-18.944-45.952-2.56-7.68-5.12-14.592-5.632-15.104s-17.92-3.84-38.784-7.424c-20.864-3.456-40.96-7.424-44.544-8.832-8.576-3.456-15.872-8.448-22.912-16.128-7.424-8.064-10.624-13.312-13.952-23.168-2.56-7.552-2.688-10.624-2.688-64.896 0-64.512 0.256-66.048 10.368-81.28 6.528-9.856 13.44-15.744 24.832-21.376 7.936-3.84 13.568-5.12 49.024-11.264 22.016-3.712 40.192-7.040 40.32-7.296 0.256-0.256 3.072-7.936 6.528-17.152 3.328-9.088 9.856-24.448 14.336-33.92l8.32-17.408-22.784-31.872c-12.544-17.664-24.064-34.944-25.6-38.528-8.32-19.072-6.144-42.24 5.504-60.032 2.304-3.456 21.376-23.424 42.368-44.288 33.664-33.536 39.168-38.4 46.464-41.856 14.592-6.784 28.16-8.32 43.264-4.736 11.392 2.688 13.952 4.224 49.408 29.312l31.872 22.656 18.688-8.32c10.24-4.608 25.344-10.752 33.408-13.568 8.064-2.944 14.848-5.376 14.976-5.504 0.128-0.256 3.2-17.792 6.784-39.168s7.552-41.216 8.576-44.16c6.912-17.28 21.248-31.232 38.656-37.376 8.32-2.944 9.088-3.072 65.536-3.072 53.504 0 57.728 0.128 65.408 2.56 14.336 4.352 26.752 13.952 34.816 26.624 5.504 8.832 8.448 19.968 14.208 55.296 6.144 36.864 7.040 40.96 10.112 40.96 3.328 0 35.328 12.544 50.688 19.968l15.104 7.168 31.36-22.528c17.28-12.416 34.816-24.064 38.784-25.856 16.896-7.424 36.736-6.912 54.528 1.664 8.576 4.096 12.544 7.552 46.208 41.088 20.352 20.224 39.168 40.064 41.984 44.288 7.68 11.52 10.496 22.4 9.856 38.272-0.896 20.48-0.512 19.968-47.616 86.016l-4.992 6.912 8.064 17.664c4.48 9.728 10.88 25.216 14.208 34.304 4.864 13.568 6.656 16.768 9.088 17.664 1.536 0.512 18.688 3.584 38.016 6.784 19.2 3.072 38.016 6.784 41.728 8.064 19.328 6.784 34.304 23.296 39.68 43.776 2.816 10.24 2.688 112.64 0 123.136-2.944 11.392-7.936 19.968-16.512 28.416-13.184 13.312-18.432 15.104-64.768 23.168-22.016 3.712-40.192 7.040-40.32 7.168-0.256 0.256-3.072 7.808-6.4 17.024-3.328 9.088-9.728 24.576-14.080 34.304l-8.192 17.792 23.040 32.256c23.168 32.384 27.008 39.296 29.568 53.248 2.432 13.056-1.024 31.488-8.064 43.392-3.84 6.4-77.184 80-84.48 84.608-17.92 11.648-43.264 12.928-62.208 3.328-3.456-1.664-20.224-12.928-37.12-24.96l-30.72-21.888-13.952 6.528c-16 7.552-34.304 14.848-47.232 19.072-4.864 1.536-9.472 3.328-9.984 3.84-0.512 0.384-3.84 17.792-7.296 38.528s-7.296 40.192-8.448 43.392c-6.528 17.408-21.248 31.744-38.784 37.888-8.32 2.944-8.96 3.072-66.048 3.072-56.704-0.128-57.728-0.128-66.176-2.944zM557.696 900.224c2.176-1.92 3.968-10.496 10.496-49.536 8.576-51.968 9.728-55.424 19.072-61.44 2.56-1.792 11.904-5.248 20.736-7.808 23.040-6.784 42.624-14.72 65.92-26.752 11.264-5.888 22.784-11.008 25.728-11.392 10.88-1.792 15.36 0.64 56.448 30.208 21.12 15.232 39.552 28.16 40.704 28.544 1.664 0.64 10.624-7.68 36.096-33.152 21.12-20.992 33.792-34.56 33.408-35.712-0.384-1.024-12.8-18.688-27.52-39.424-14.848-20.736-27.776-39.552-28.928-41.856-1.408-2.56-2.176-7.168-2.176-12.544 0-8.064 0.512-9.216 10.752-29.184 12.416-23.808 19.2-40.448 26.368-63.744 9.344-31.36 6.784-29.824 68.096-40.32 26.24-4.48 48.128-8.192 48.64-8.192s1.792-0.896 2.816-2.048c1.792-1.664 2.048-7.808 2.048-47.232 0-41.088-0.256-45.44-2.176-47.872-2.048-2.304-8.704-3.712-48.768-10.368-25.472-4.224-48.64-8.576-51.456-9.728-7.040-2.816-13.696-11.008-16.128-19.712-7.808-28.16-19.072-56.32-31.104-78.080-8.832-16-10.88-22.4-9.728-29.952 1.28-7.552 3.712-11.392 32.384-51.84 14.208-19.968 25.856-37.376 25.856-38.4 0-1.152-15.232-17.28-33.792-35.84l-33.792-33.792-3.712 2.304c-1.92 1.28-19.456 13.568-38.784 27.392-19.328 13.696-37.248 25.984-39.68 27.264-2.816 1.408-7.168 2.304-12.16 2.304-7.168 0-9.344-0.768-33.92-13.184-24.32-12.16-46.464-20.736-69.248-27.008-9.344-2.56-16.768-8.192-20.096-15.104-1.792-3.584-5.248-20.864-10.368-51.328-4.352-25.216-7.808-46.336-7.808-46.976s-0.896-2.048-2.048-3.072c-1.664-1.792-7.808-2.048-47.744-2.048-34.56 0-46.208 0.384-47.872 1.664-1.664 1.152-3.968 12.8-10.112 49.28-10.752 64.768-7.68 60.416-50.176 73.984-17.152 5.504-29.056 10.368-48.256 19.968-22.912 11.264-26.24 12.544-32.64 12.544-3.84 0-8.832-0.768-11.136-1.792-2.304-0.896-21.376-13.952-42.496-28.928-20.992-14.976-39.296-27.52-40.704-27.904-1.92-0.512-9.856 6.784-35.584 32.512-19.2 19.2-33.152 34.176-33.152 35.456s12.16 19.456 27.008 40.32c14.976 20.864 27.904 39.936 28.928 42.368s1.792 7.808 1.792 12.16c0 6.144-0.768 9.088-3.84 14.72-17.024 31.104-27.648 55.552-34.816 80.384-4.48 15.872-8.96 22.784-17.664 27.136-2.944 1.536-22.144 5.376-51.968 10.496-26.112 4.352-48.128 8.576-48.896 9.216-2.048 1.536-2.432 96.256-0.384 97.536 0.64 0.384 22.784 4.352 49.024 8.832s49.536 9.088 51.712 10.112c7.168 3.712 12.672 11.776 15.616 22.4 6.912 25.856 16.768 50.688 29.568 75.136 9.6 18.432 10.88 22.528 9.6 30.976-0.896 6.272-2.048 8.064-36.864 57.088-12.544 17.536-22.656 32.512-22.656 33.28 0 1.664 63.36 65.664 66.944 67.584 1.92 1.024 8.96-3.456 39.296-25.088 46.336-33.024 45.696-32.64 56.576-32.64 7.296 0 9.6 0.64 16.64 4.48 27.264 15.232 54.528 27.008 78.848 34.048 27.776 7.936 27.264 7.040 37.888 69.632 6.528 38.016 8.832 48.896 10.624 50.176 1.664 1.28 12.928 1.664 47.232 1.664 41.088 0 45.312-0.256 47.488-2.176zM488.32 668.544c-66.688-8.064-123.648-42.368-160-96.384-54.144-80.64-49.792-186.752 10.88-263.040 8.704-11.008 29.696-30.976 40.96-39.296 46.976-34.176 103.552-48.768 160.384-41.344 61.312 8.064 116.096 40.96 152.32 91.648 10.24 14.336 23.68 40.704 29.056 57.088 31.744 96.128-4.096 199.808-88.32 256-25.984 17.408-58.752 29.696-91.264 34.304-11.648 1.664-43.904 2.304-54.016 1.024zM546.816 606.848c63.104-14.464 110.976-63.744 124.672-128.128 2.816-13.44 3.2-43.776 0.64-57.6-11.904-66.56-62.336-118.144-129.408-132.608-14.976-3.2-46.336-3.2-61.44-0.128-32.64 6.912-60.544 21.888-83.712 44.928-52.096 51.712-63.104 131.584-26.752 194.688 26.112 45.568 68.096 73.472 122.624 81.792 9.088 1.408 42.496-0.512 53.376-2.944z" />
<glyph unicode="&#xe918;" glyph-name="icon-trash" d="M376.542 948.712c-43.54-16.126-49.991-23.383-79.017-93.531l-25.802-63.698-219.313-4.838v-88.693l76.598-4.838v-320.101c0-185.449 3.225-332.195 8.063-348.321 4.031-16.126 20.964-41.121 36.283-56.441l29.027-28.22h305.587c295.106 0 305.587 0.806 328.164 16.932 12.094 8.869 30.639 32.252 40.315 51.603 18.545 35.477 18.545 39.509 18.545 360.416v324.132l76.598 4.838v88.693l-218.507 4.838-28.22 65.31c-39.509 93.531-49.184 98.369-200.769 101.594-83.855 0.806-125.783-1.613-147.553-9.676zM637.783 825.348l14.513-34.671h-141.102c-137.071 0-140.296 0.806-132.233 15.32 4.031 8.869 11.288 24.995 16.126 37.090l8.063 20.964 220.12-4.838 14.513-33.865zM806.299 388.334c0-200.769-3.225-313.65-8.869-330.583l-8.869-24.995h-553.121l-8.869 24.995c-5.644 16.932-8.869 129.814-8.869 330.583v305.587h588.598v-305.587zM308.813 575.395c-8.063-2.419-10.482-53.216-10.482-212.863v-208.831h88.693v208.831c0 183.030-1.613 209.638-12.901 213.669-14.513 5.644-50.797 5.644-65.31-0.806zM478.135 575.395c-8.063-2.419-10.482-53.216-10.482-212.863v-208.831h88.693v208.831c0 183.030-1.613 209.638-12.901 213.669-14.513 5.644-50.797 5.644-65.31-0.806zM647.458 575.395c-8.063-2.419-10.482-53.216-10.482-212.863v-208.831h88.693v208.831c0 183.030-1.613 209.638-12.901 213.669-14.513 5.644-50.797 5.644-65.31-0.806z" />
<glyph unicode="&#xe919;" glyph-name="icon-user" d="M439.6 954.4c-108-30-183.6-128.8-183.6-240.4 0-70 23.6-126.4 73.6-176 52.4-52 102-72 178.4-72 73.2 0.4 126 23.6 177.6 78.4 46.8 49.6 66.4 99.6 66.4 169.6 0 20-2.8 47.6-6 61.6-19.2 80.8-94.4 156.8-176.4 178.4-28.4 7.2-103.6 7.6-130 0.4zM580.4 881.2c72.8-36 110.8-100 106.8-180.4-2.4-48.8-19.6-84.8-56.8-120-31.2-28.8-58.8-43.2-97.6-49.2-127.6-20.8-239.2 101.2-206.8 226.4 15.6 60 60.4 108.8 119.6 130.4 16 6 29.6 7.2 64.4 6.4 40.8-0.8 46.4-2 70.4-13.6zM266.4 463.6c-118-24-186.8-155.6-182-350 1.6-52.4 2.4-57.2 14-81.6 21.6-46 53.2-73.2 100.8-88 24.4-7.6 38-8 310.4-8 177.2 0 291.2 1.6 302 4.4 62 14 110.8 64.4 124 126.8 14 67.2-4.4 204-37.2 274.8-32 68.4-76.8 106.4-141.2 120-48 10.4-51.2 9.6-119.6-32.8-56.4-34.4-112.8-46.8-164.8-35.6-36 7.6-63.6 20-110 49.2-39.6 24.8-57.2 28.8-96.4 20.8zM340 380c119.2-75.2 228.4-73.2 352.8 6.4 27.6 18 28.4 18 47.6 14 10.8-2.4 26.4-8 34.8-12 22-11.2 50-42.8 64-73.2 33.6-70 48-214.4 25.6-257.2-9.6-18.8-29.2-38.4-47.6-47.6-26-13.2-70-14.8-329.2-13.6-229.2 1.6-255.6 2.4-272.4 8.4-25.6 10-45.2 27.6-57.2 51.6-9.6 19.2-10.4 24.8-10.4 71.6 0 128 38.4 229.2 98.4 259.2 18.4 9.2 36.4 15.2 49.6 16 3.6 0.4 23.2-10.4 44-23.6z" />
<glyph unicode="&#xe91a;" glyph-name="icon-vanban" d="M157 956.2c-10.4-4.6-20.6-14.8-25.2-25.2-3.6-7.6-3.8-27.2-3.8-483s0.2-475.4 3.8-483c4.6-10.4 14.8-20.6 25.2-25.2 7.6-3.6 23.2-3.8 355-3.8s347.4 0.2 355 3.8c10.4 4.6 20.6 14.8 25.2 25.2 3.6 7.6 3.8 24.8 3.8 401.6 0 338.2-0.4 394.4-2.8 399-3.6 6.6-186.4 189-192.6 192.2-3 1.6-80 2.2-270 2.2-253 0-266-0.2-273.6-3.8zM664 839.6c0-68.8 0.4-73 4.2-81.6 5.4-12 12.8-19.6 24.8-25.2 10-4.8 10.4-4.8 82.6-4.8h72.4l-0.4-371.4-0.6-371.6h-670l-0.6 461c-0.2 253.6 0 462.2 0.6 463.6 0.6 1.8 51.4 2.4 244 2.4h243v-72.4zM763 826l48-48h-97v48c0 26.4 0.2 48 0.6 48 0.2 0 22-21.6 48.4-48zM284.2 627c-8-6.8-11.2-16.8-8.2-26 1.2-3.8 5-9.2 8.2-12l6.2-5h443.2l6.2 5c12.4 10.6 12.4 27.4 0 38l-6.2 5h-443.2l-6.2-5zM288.2 485.4c-12.2-6.2-17-24.8-9.4-36.4s-2.2-11 236-10.6c218.6 0.6 219 0.6 224.6 4.8 11.8 8.8 12.6 28.4 1.4 39l-5.2 4.8-221.2 0.4c-173.2 0.4-222.4 0-226.2-2zM288.6 341c-17.6-7.6-18-35.4-0.4-44.4 3.8-2 53-2.4 226.2-2l221.2 0.4 5.2 4.8c11.2 10.6 10.4 30.2-1.4 39-5.6 4.2-5.8 4.2-225 4.6-183.4 0.4-220.4 0-225.8-2.4zM284.2 193c-3.2-2.8-7-8.2-8.2-12-3-9.2 0.2-19.2 8.2-26l6.2-5h232l6.8 6.8c6 6 6.8 8 6.8 17.2s-0.8 11.2-6.8 17.2l-6.8 6.8h-232l-6.2-5z" />
<glyph unicode="&#xe91b;" glyph-name="icon_library" d="M0 833.32v-52.784h190.021v105.567h-190.021v-52.784zM506.722 833.32v-52.784h200.577v105.567h-200.577v-52.784zM0 437.443v-321.979h190.021v643.959h-190.021v-321.979zM818.144 754.144c-5.278-2.111-23.225-6.334-39.060-9.501-16.891-4.223-29.559-12.668-29.559-20.058 0-6.334 26.392-146.738 60.173-310.367 40.115-201.633 64.396-298.755 72.841-298.755 36.948 0 120.346 24.28 120.346 34.837 0 7.39-26.392 146.738-60.173 311.423-60.173 296.643-60.173 297.699-87.621 296.643-14.779 0-30.614-2.111-36.948-4.223zM211.134 665.468c0-41.171 0-41.171 52.784-52.784 67.563-14.779 110.845-14.779 161.518 0 36.948 9.501 39.060 12.668 39.060 51.728v42.227h-253.361v-41.171zM506.722 437.443v-226.969h200.577v453.938h-200.577v-226.969zM211.134 368.825v-233.303l40.115 8.445c49.616 10.557 146.738 10.557 184.742 0l28.503-7.39v449.715l-102.4-1.056c-57.006 0-114.012 4.223-126.68 8.445l-24.28 8.445v-233.303zM242.804 116.52c-23.225-6.334-26.392-13.724-29.559-57.006l-3.167-49.616h254.416v47.505c0 35.893-5.278 49.616-20.058 58.062-23.225 11.612-159.406 12.668-201.633 1.056zM506.722 52.124v-42.227h200.577v84.454h-200.577v-42.227z" />
<glyph unicode="&#xe91c;" glyph-name="icon_play" d="M449.794 954.258c-32.538-16.269-34.133-61.249-2.233-76.561 7.337-3.509 26.796-8.932 43.384-11.803 67.948-11.803 155.355-49.126 215.646-92.511 36.047-25.839 75.923-62.525 102.4-94.106 22.649-27.115 30.305-31.9 49.764-31.9 28.391 0 49.126 27.434 41.151 54.231-7.337 24.563-70.181 90.916-125.368 132.705-78.794 59.335-165.563 98.253-261.264 117.712-47.85 9.57-49.126 9.57-63.482 2.233zM179.599 716.601c-19.14-7.018-37.323-22.968-47.212-40.832l-9.57-17.226v-660.336l7.018-13.079c16.588-31.262 46.255-49.126 80.708-48.807 11.484 0 25.839 1.914 31.9 4.147 13.079 4.785 539.115 308.157 554.108 319.641 5.423 4.147 14.355 16.588 19.778 27.115 16.907 34.133 12.122 75.285-11.803 101.443-8.932 9.889-78.475 51.36-278.171 166.52-146.422 84.536-272.11 156.312-279.128 159.502-14.674 6.699-51.36 7.656-67.629 1.914zM555.065 435.559c99.21-57.102 180.556-105.271 181.194-106.547 0.319-1.276-117.712-70.819-262.54-154.398l-263.178-151.845v611.529l82.303-47.212c44.979-26.158 163.011-94.425 262.221-151.526z" />
<glyph unicode="&#xe91d;" glyph-name="icon_report" d="M761.6 956.8c-5.6-3.2-212-281.6-222.4-299.6-9.2-15.2-6.4-30 7.6-41.2 8.8-6.8 16.4-8 51.6-8h41.6v-136.8l-12.8 3.6c-7.2 1.6-37.6 3.2-67.2 3.2-52.4 0-54.8-0.4-75.6-12-22.4-12.4-42.4-35.2-51.2-59.2-2.4-7.2-4.8-32-4.8-55.2l-0.4-42.8-20.4 6c-32 9.6-107.6 5.6-131.6-6.4-24.4-12.4-38.8-26.8-51.2-50.4-8.8-17.2-10.8-26-12-64.4l-1.6-44.4-20.8 5.6c-26.8 7.6-102.4 5.2-122.8-3.6-22-9.6-47.6-34.8-58-57.2-8.8-18.4-9.6-25.6-9.6-82.4 0-55.2 0.8-63.2 7.2-68.8 6.8-6.4 44-6.8 452-6.8h444.4l8 10.4c8.4 10.8 8.4 12.8 8.4 336v325.6h41.6c35.6 0 42.8 1.2 52 8.4 8 6.4 10.4 11.6 10.4 23.6 0 13.6-10.4 29.6-104.4 156.8-57.6 77.6-109.2 146-114.8 152.4-7.6 8-14 10.8-24.4 10.8-8 0-16.4-1.6-18.8-3.2zM856.4 772l72.4-98-27.2-1.2c-21.6-0.8-29.6-3.2-36.4-9.6l-9.2-8.4v-658.8h-152v657.6l-8.8 9.2c-7.2 8-12.4 9.2-36.4 9.2-15.2 0-26.8 1.6-26 3.2 3.6 9.6 145.2 196.8 148 196 1.6-0.8 35.6-45.2 75.6-99.2zM624.8 400.8l13.2-12.8 2.4-392h-148.4v192.4c0 174 0.8 193.6 6.8 204 11.6 19.2 26 24 72 22.8 40.4-1.2 41.2-1.6 54-14.4zM398.8 249.2c9.6-4.4 16.8-12 21.6-22.8 6.8-14.8 7.6-28 7.6-123.2v-107.2h-152v111.2c0 104 0.4 111.6 8 124 4.4 7.2 14 15.6 21.2 18.8 18.8 8.4 76 7.6 93.6-0.8zM182 90.4c21.6-9.2 30-26.8 30-63.2v-31.2h-153.2l2.4 32.4c2.4 36.8 8.8 49.2 31.2 60.4 17.2 9.2 69.6 9.6 89.6 1.6z" />
<glyph unicode="&#xe91e;" glyph-name="icon_telephone" horiz-adv-x="1021" d="M180.48 957.312c-12.032-3.072-26.112-9.728-36.992-17.408-9.472-6.656-88.96-84.992-102.4-100.864-20.992-24.704-32.768-49.152-38.016-78.592-4.48-25.216-3.584-65.536 2.176-97.792 11.904-67.2 48.384-157.312 95.488-236.288 31.744-53.12 78.464-116.608 125.952-171.008 18.688-21.504 76.416-79.232 97.792-97.792 75.648-65.92 152.576-117.248 239.36-159.616 71.808-35.072 132.736-54.4 190.976-60.672 18.688-2.048 57.728-1.024 70.784 1.92 34.048 7.552 62.336 23.552 86.4 49.024 6.4 6.784 27.52 28.288 47.104 48 25.984 26.112 37.376 38.656 42.624 46.464 13.312 19.968 18.816 37.504 18.816 59.392 0 20.352-5.504 37.76-17.664 56.576-9.216 13.952-150.912 155.648-164.736 164.608-36.224 23.296-77.44 22.272-113.536-3.2-4.608-3.328-27.392-24.704-50.432-47.616l-41.984-41.728-18.432 9.344c-63.872 32.64-140.288 97.664-206.336 175.616-25.856 30.592-50.944 67.328-65.664 96.256l-9.344 18.304 42.88 42.88c43.904 44.032 50.176 51.456 58.624 69.248 15.232 32.768 10.752 71.424-11.776 101.12-7.296 9.6-139.904 143.36-151.296 152.704-11.392 9.088-28.032 17.792-40.96 21.12-13.696 3.584-35.712 3.584-49.408 0zM222.976 902.784c4.608-2.176 12.544-7.68 18.304-12.928 5.632-4.992 39.296-38.528 74.88-74.752 71.68-72.832 71.424-72.576 72.704-89.6 0.768-10.24-1.792-18.944-8.064-28.544-4.608-6.784-57.856-61.312-82.048-83.968-16-14.976-20.608-22.144-21.76-34.176-1.152-10.752 1.92-20.864 13.44-44.416 20.096-41.344 43.904-76.416 82.816-121.856 66.56-77.824 142.72-141.952 211.712-178.56 40.064-21.12 36.224-19.584 49.28-19.584 18.304 0 18.048-0.128 72.96 54.272 26.88 26.752 49.792 48.512 53.12 50.304 8.832 4.992 19.84 7.808 27.264 7.040 3.456-0.512 10.112-2.56 14.848-4.736 7.808-3.712 13.952-9.472 82.176-77.824 66.56-66.688 74.24-74.624 77.824-82.176 7.808-16.128 6.272-31.616-4.352-48.128-2.816-4.224-18.944-21.504-36.992-39.552-17.664-17.664-38.144-38.4-45.568-46.336-20.352-21.632-38.528-32-64.64-36.864-14.976-2.944-46.848-2.048-69.76 1.92-76.16 12.8-173.184 55.936-269.44 119.68-59.648 39.552-105.344 77.056-158.208 129.792-49.152 49.152-87.808 95.36-128.768 153.728-66.176 94.208-116.864 207.104-128.384 285.824-2.944 19.968-3.584 53.248-1.28 66.432 2.688 15.744 9.472 32.64 18.304 45.824 5.376 8.064 97.408 100.352 104.96 105.216 14.72 9.472 29.952 10.88 44.672 3.968z" />
<glyph unicode="&#xe91f;" glyph-name="icon_user2" horiz-adv-x="872" d="M398.080 957.952c-87.808-13.824-149.504-68.224-172.032-151.552-11.392-42.368-15.104-110.464-9.088-165.12 11.648-104.576 53.888-178.432 121.728-212.224 55.552-27.776 133.504-28.416 190.72-1.664 81.152 38.144 127.104 134.272 127.36 267.008 0.256 68.608-7.296 111.744-26.368 151.296-19.712 41.216-49.28 71.296-89.984 91.264-19.328 9.6-37.248 15.36-62.336 20.096-14.976 2.816-64.128 3.456-80 0.896zM465.28 899.2c35.2-5.504 65.408-20.48 87.040-43.008 27.008-28.288 40.064-62.976 44.8-118.656 4.224-51.328 1.152-96.768-9.6-139.392-17.792-70.016-54.4-112.896-108.16-126.464-43.008-10.88-90.88-5.12-123.52 14.976-13.056 7.936-28.544 22.528-38.784 36.224-8.832 11.904-22.144 38.528-27.776 55.68-5.12 15.616-10.752 41.088-13.696 61.44-3.2 22.656-3.2 93.184 0 116.48 4.992 35.328 14.72 62.592 30.080 84.48 33.024 46.72 92.8 68.48 159.616 58.24zM281.6 409.216c-2.432-0.896-9.344-4.864-15.36-8.832-48.256-31.232-108.288-58.368-162.048-73.216-40.96-11.392-71.936-39.168-88.064-79.104-10.368-25.728-14.592-51.968-15.744-95.872-1.28-53.248 3.584-91.904 13.568-107.52 4.096-6.528 14.208-12.928 43.392-27.392 88.704-44.16 199.68-72.192 317.056-80 25.088-1.664 98.816-1.664 123.776 0 120.832 8.064 237.44 38.4 326.144 84.736 35.2 18.304 37.76 21.248 42.88 50.56 5.12 28.928 5.76 94.208 1.28 124.544-6.016 41.216-18.56 70.912-39.552 93.056-18.304 19.328-35.072 28.928-66.944 38.272-53.504 15.616-116.352 44.672-159.488 73.728-12.544 8.448-21.76 10.496-31.872 6.912-16.64-5.888-24.064-26.112-15.488-41.856 2.56-4.864 5.76-7.936 14.336-13.696 45.44-30.848 111.872-62.080 167.936-78.976 29.184-8.704 35.328-11.776 46.72-23.040 18.432-18.432 25.984-42.24 28.672-90.752 1.536-28.928-0.64-72.576-4.096-79.232-2.944-5.888-59.52-30.72-102.784-45.056-186.368-62.208-405.12-56.192-583.68 16-22.912 9.344-57.984 26.496-59.392 29.184-1.28 2.56-3.584 23.168-4.608 43.136-1.408 26.24 2.432 69.632 7.808 88.96 7.552 27.008 25.984 47.744 48.64 55.040 4.224 1.28 17.024 5.376 28.672 8.96 47.744 14.976 101.376 39.936 147.84 68.864 24.832 15.36 29.568 21.632 28.544 37.888-0.64 9.984-4.992 17.152-13.44 22.144-6.656 3.84-18.048 5.12-24.704 2.56z" />
</font>
</defs>
</svg>
